# xmcd
#
# Track frame offsets:
#	150
#	20297
#	38635
#	49545
#	62017
#	71447
#	97175
#	109387
#	120707
#	134345
#	146145
#	158297
#	174860
#	199785
#
# Disc length: 2870 seconds
#
# Revision: 2
# Processed by: cddbd v1.5.2PL0 Copyright (c) Steve Scherf et al.
# Submitted via: EasyCDDAExtractor 9.0.0.1
#
DISCID=bb0b340e
DTITLE=Various Artist - Blues Soul
DYEAR=1900
DGENRE=Blues
TTITLE0=The Tams - To Have Somebody
TTITLE1=Brook Benton - Rainy Night in Georgia
TTITLE2=Lee Dorsey - Ya Ya
TTITLE3=Jerry Butler - He Will Break Your Heart
TTITLE4=Al Jarreau - Ain't No Sunshine
TTITLE5=George Williams - Let's Make This Love Last Forever
TTITLE6=The Platters - (You've Got) That Magic Touch
TTITLE7=Mary Wells - The One Who really Loves You
TTITLE8=Gladys Knight - Queen Of Tears
TTITLE9=Brook Benton - Hotel Happiness
TTITLE10=King Curtis - Soul Twist
TTITLE11=Ike and Tina Turner - I Can't Stop Loving You
TTITLE12=George Williams - That's How Friends Should Be
TTITLE13=Clarence Carter - Driftaway
EXTD=
EXTT0=The Tams\n
EXTT1=Brook Benton\n
EXTT2=Lee Dorsey\n
EXTT3=Jerry Butler\n
EXTT4=Al Jarreau\n
EXTT5=George Williams\n
EXTT6=The Platters\n
EXTT7=Mary Wells\n
EXTT8=Gladys Knight\n
EXTT9=Brook Benton\n
EXTT10=King Curtis\n
EXTT11=Ike and Tina Turner\n
EXTT12=George Williams\n
EXTT13=Clarence Carter\n
PLAYORDER=
